<svg xmlns="http://www.w3.org/2000/svg" width="900" height="560" viewBox="0 0 900 560">
<rect width="100%" height="100%" fill="white"/>
<g font-family="sans-serif">
<text x="450.0" y="27" text-anchor="middle" font-size="20" font-weight="600">FlagQuantum VQE: IR+Triton vs PyTorch eager deviation</text>
<text x="450.0" y="48" text-anchor="middle" font-size="14" fill="#445">precision: complex64 statevector / float32 parameter reduction</text>
<line x1="110" y1="484.00" x2="865" y2="484.00" stroke="#d9dee8"/><text x="98" y="489.00" text-anchor="end" font-size="14">0.0e+00</text><line x1="110" y1="398.80" x2="865" y2="398.80" stroke="#d9dee8"/><text x="98" y="403.80" text-anchor="end" font-size="14">1.8e-05</text><line x1="110" y1="313.60" x2="865" y2="313.60" stroke="#d9dee8"/><text x="98" y="318.60" text-anchor="end" font-size="14">3.6e-05</text><line x1="110" y1="228.40" x2="865" y2="228.40" stroke="#d9dee8"/><text x="98" y="233.40" text-anchor="end" font-size="14">5.4e-05</text><line x1="110" y1="143.20" x2="865" y2="143.20" stroke="#d9dee8"/><text x="98" y="148.20" text-anchor="end" font-size="14">7.2e-05</text><line x1="110" y1="58.00" x2="865" y2="58.00" stroke="#d9dee8"/><text x="98" y="63.00" text-anchor="end" font-size="14">9.0e-05</text><text x="110.00" y="512" text-anchor="middle" font-size="14">1</text><text x="261.30" y="512" text-anchor="middle" font-size="14">101</text><text x="412.61" y="512" text-anchor="middle" font-size="14">201</text><text x="562.39" y="512" text-anchor="middle" font-size="14">300</text><text x="713.70" y="512" text-anchor="middle" font-size="14">400</text><text x="865.00" y="512" text-anchor="middle" font-size="14">500</text>
<line x1="110" y1="484" x2="865" y2="484" stroke="#222"/>
<line x1="110" y1="58" x2="110" y2="484" stroke="#222"/>
<polyline points="110.00,470.42 111.51,482.87 113.03,481.74 114.54,456.83 116.05,456.83 117.57,447.78 119.08,461.36 120.59,452.30 122.10,443.25 123.62,407.02 125.13,325.52 126.64,384.38 128.16,370.80 129.67,339.10 131.18,443.25 132.70,375.33 134.21,393.44 135.72,343.63 137.23,375.33 138.75,456.83 140.26,429.66 141.77,384.38 143.29,262.12 144.80,465.89 146.31,407.02 147.83,379.85 149.34,452.30 150.85,438.72 152.36,370.80 153.88,474.94 155.39,375.33 156.90,479.47 158.42,339.10 159.93,407.02 161.44,425.14 162.96,307.41 164.47,465.89 165.98,320.99 167.49,271.18 169.01,456.83 170.52,339.10 172.03,447.78 173.55,402.49 175.06,429.66 176.57,343.63 178.09,244.01 179.60,425.14 181.11,407.02 182.63,388.91 184.14,438.72 185.65,411.55 187.16,461.36 188.68,479.47 190.19,311.93 191.70,393.44 193.22,370.80 194.73,470.42 196.24,443.25 197.76,411.55 199.27,293.82 200.78,416.08 202.29,379.85 203.81,461.36 205.32,416.08 206.83,456.83 208.35,370.80 209.86,474.94 211.37,307.41 212.89,461.36 214.40,461.36 215.91,307.41 217.42,438.72 218.94,343.63 220.45,411.55 221.96,357.21 223.48,416.08 224.99,257.60 226.50,461.36 228.02,411.55 229.53,447.78 231.04,411.55 232.56,456.83 234.07,434.19 235.58,438.72 237.09,434.19 238.61,357.21 240.12,248.54 241.63,429.66 243.15,470.42 244.66,348.16 246.17,375.33 247.69,388.91 249.20,248.54 250.71,388.91 252.22,370.80 253.74,384.38 255.25,176.09 256.76,316.46 258.28,334.57 259.79,397.97 261.30,416.08 262.82,425.14 264.33,479.47 265.84,384.38 267.35,465.89 268.87,388.91 270.38,420.61 271.89,474.94 273.41,361.74 274.92,370.80 276.43,452.30 277.95,225.90 279.46,339.10 280.97,402.49 282.48,425.14 284.00,470.42 285.51,452.30 287.02,189.68 288.54,103.64 290.05,330.05 291.56,443.25 293.08,434.19 294.59,465.89 296.10,244.01 297.62,366.27 299.13,244.01 300.64,447.78 302.15,234.96 303.67,434.19 305.18,289.29 306.69,248.54 308.21,357.21 309.72,325.52 311.23,126.28 312.75,388.91 314.26,470.42 315.77,452.30 317.28,375.33 318.80,411.55 320.31,438.72 321.82,407.02 323.34,366.27 324.85,339.10 326.36,470.42 327.88,434.19 329.39,397.97 330.90,325.52 332.41,420.61 333.93,479.47 335.44,452.30 336.95,393.44 338.47,216.84 339.98,402.49 341.49,348.16 343.01,456.83 344.52,470.42 346.03,289.29 347.55,461.36 349.06,357.21 350.57,461.36 352.08,470.42 353.60,275.71 355.11,425.14 356.62,447.78 358.14,330.05 359.65,434.19 361.16,384.38 362.68,307.41 364.19,266.65 365.70,302.88 367.21,470.42 368.73,425.14 370.24,388.91 371.75,316.46 373.27,420.61 374.78,302.88 376.29,461.36 377.81,407.02 379.32,397.97 380.83,447.78 382.34,443.25 383.86,393.44 385.37,479.47 386.88,357.21 388.40,343.63 389.91,334.57 391.42,357.21 392.94,234.96 394.45,411.55 395.96,379.85 397.47,257.60 398.99,388.91 400.50,452.30 402.01,438.72 403.53,370.80 405.04,411.55 406.55,370.80 408.07,438.72 409.58,474.94 411.09,379.85 412.61,411.55 414.12,352.69 415.63,465.89 417.14,443.25 418.66,330.05 420.17,289.29 421.68,425.14 423.20,266.65 424.71,438.72 426.22,474.94 427.74,474.94 429.25,411.55 430.76,307.41 432.27,397.97 433.79,384.38 435.30,456.83 436.81,429.66 438.33,447.78 439.84,452.30 441.35,384.38 442.87,452.30 444.38,416.08 445.89,456.83 447.40,311.93 448.92,280.24 450.43,298.35 451.94,484.00 453.46,447.78 454.97,388.91 456.48,339.10 458.00,311.93 459.51,343.63 461.02,348.16 462.54,388.91 464.05,420.61 465.56,438.72 467.07,275.71 468.59,361.74 470.10,465.89 471.61,343.63 473.13,425.14 474.64,339.10 476.15,352.69 477.67,352.69 479.18,221.37 480.69,470.42 482.20,465.89 483.72,343.63 485.23,429.66 486.74,429.66 488.26,456.83 489.77,411.55 491.28,461.36 492.80,289.29 494.31,407.02 495.82,357.21 497.33,425.14 498.85,461.36 500.36,416.08 501.87,311.93 503.39,429.66 504.90,384.38 506.41,293.82 507.93,438.72 509.44,388.91 510.95,384.38 512.46,474.94 513.98,370.80 515.49,438.72 517.00,393.44 518.52,379.85 520.03,434.19 521.54,284.77 523.06,456.83 524.57,221.37 526.08,307.41 527.60,474.94 529.11,379.85 530.62,438.72 532.13,357.21 533.65,271.18 535.16,366.27 536.67,416.08 538.19,293.82 539.70,266.65 541.21,284.77 542.73,474.94 544.24,112.70 545.75,239.48 547.26,420.61 548.78,438.72 550.29,334.57 551.80,397.97 553.32,461.36 554.83,447.78 556.34,379.85 557.86,429.66 559.37,438.72 560.88,334.57 562.39,384.38 563.91,298.35 565.42,425.14 566.93,357.21 568.45,348.16 569.96,411.55 571.47,429.66 572.99,302.88 574.50,357.21 576.01,253.07 577.53,461.36 579.04,434.19 580.55,452.30 582.06,411.55 583.58,348.16 585.09,257.60 586.60,429.66 588.12,470.42 589.63,411.55 591.14,375.33 592.66,253.07 594.17,330.05 595.68,112.70 597.19,411.55 598.71,429.66 600.22,284.77 601.73,397.97 603.25,429.66 604.76,343.63 606.27,447.78 607.79,407.02 609.30,447.78 610.81,384.38 612.32,465.89 613.84,461.36 615.35,484.00 616.86,452.30 618.38,361.74 619.89,465.89 621.40,402.49 622.92,289.29 624.43,402.49 625.94,361.74 627.45,357.21 628.97,289.29 630.48,470.42 631.99,370.80 633.51,284.77 635.02,112.70 636.53,348.16 638.05,402.49 639.56,465.89 641.07,361.74 642.59,298.35 644.10,244.01 645.61,357.21 647.12,388.91 648.64,474.94 650.15,212.32 651.66,474.94 653.18,416.08 654.69,311.93 656.20,384.38 657.72,388.91 659.23,352.69 660.74,320.99 662.25,230.43 663.77,456.83 665.28,352.69 666.79,293.82 668.31,461.36 669.82,216.84 671.33,438.72 672.85,470.42 674.36,248.54 675.87,284.77 677.38,384.38 678.90,429.66 680.41,434.19 681.92,361.74 683.44,388.91 684.95,443.25 686.46,348.16 687.98,465.89 689.49,407.02 691.00,384.38 692.52,465.89 694.03,280.24 695.54,484.00 697.05,330.05 698.57,320.99 700.08,484.00 701.59,176.09 703.11,343.63 704.62,465.89 706.13,339.10 707.65,407.02 709.16,407.02 710.67,425.14 712.18,420.61 713.70,447.78 715.21,479.47 716.72,456.83 718.24,393.44 719.75,339.10 721.26,434.19 722.78,366.27 724.29,239.48 725.80,484.00 727.31,429.66 728.83,366.27 730.34,330.05 731.85,293.82 733.37,420.61 734.88,352.69 736.39,343.63 737.91,298.35 739.42,234.96 740.93,293.82 742.44,316.46 743.96,420.61 745.47,239.48 746.98,384.38 748.50,302.88 750.01,465.89 751.52,316.46 753.04,325.52 754.55,284.77 756.06,103.64 757.58,447.78 759.09,384.38 760.60,434.19 762.11,456.83 763.63,397.97 765.14,384.38 766.65,474.94 768.17,230.43 769.68,343.63 771.19,316.46 772.71,434.19 774.22,384.38 775.73,465.89 777.24,334.57 778.76,298.35 780.27,434.19 781.78,239.48 783.30,357.21 784.81,352.69 786.32,339.10 787.84,470.42 789.35,447.78 790.86,447.78 792.37,438.72 793.89,334.57 795.40,465.89 796.91,443.25 798.43,397.97 799.94,479.47 801.45,397.97 802.97,416.08 804.48,126.28 805.99,316.46 807.51,379.85 809.02,343.63 810.53,411.55 812.04,225.90 813.56,434.19 815.07,447.78 816.58,352.69 818.10,284.77 819.61,325.52 821.12,465.89 822.64,443.25 824.15,447.78 825.66,465.89 827.17,207.79 828.69,402.49 830.20,456.83 831.71,370.80 833.23,375.33 834.74,429.66 836.25,330.05 837.77,456.83 839.28,262.12 840.79,139.87 842.30,461.36 843.82,402.49 845.33,402.49 846.84,465.89 848.36,402.49 849.87,465.89 851.38,339.10 852.90,461.36 854.41,452.30 855.92,407.02 857.43,397.97 858.95,452.30 860.46,470.42 861.97,465.89 863.49,361.74 865.00,411.55" fill="none" stroke="#27866f" stroke-width="2"/>
<circle cx="288.54" cy="103.64" r="5" fill="#b33a3a"/>
<text x="288.54" y="93.64" text-anchor="middle" font-size="13" fill="#b33a3a">max 8.01e-05 @ 119</text>
<text x="450.0" y="540" text-anchor="middle" font-size="16">Number of Iterations</text>
<text x="23" y="271.0" text-anchor="middle" font-size="16" transform="rotate(-90 23 271.0)">Absolute Energy Deviation |E_Triton - E_eager|</text>
<rect x="125" y="70" width="260" height="70" rx="5" fill="white" fill-opacity="0.9" stroke="#bbc3cc"/>
<text x="138" y="92" font-size="14">final deviation: 1.53e-05</text>
<text x="138" y="113" font-size="14">mean deviation: 2.14e-05</text>
<text x="138" y="134" font-size="14">max deviation: 8.01e-05</text>
</g></svg>